<?xml version="1.0" encoding="UTF-8"?>
<svg width="192" height="108" version="1.1" viewBox="0 0 192 108" xmlns="http://www.w3.org/2000/svg" xmlns:cc="http://creativecommons.org/ns#" xmlns:rdf="http://www.w3.org/1999/02/22-rdf-syntax-ns#">
	<path d="m119.35 23.097h32.096c2.0073 0 3.3396 1.6159 2.9873 3.6233l-3.2316 18.412c-0.3523 2.0073-2.2518 3.6232-4.2592 3.6232h-18.532l-10.918 7.9096 1.9544-7.9096h-4.6012c-2.0073 0-3.3396-1.616-2.9873-3.6232l3.2316-18.412c0.3523-2.0073 2.2518-3.6233 4.2592-3.6233z" fill="none" stroke="#fff" stroke-width="3.0297"/>
	<g fill="#fff">
		<path d="m36 43.78h9.4433q3.8306 0 5.8796 0.60132 2.0713 0.60132 3.0958 1.7371 1.0468 1.1359 1.4031 2.7615 0.3786 1.6035 0.3786 4.9888v3.1401q0 3.4521-0.71267 5.0332-0.71267 1.5813-2.628 2.4275-1.893 0.8463-4.9664 0.8463h-2.5165v14.521h-9.3761zm9.3761 6.1692v9.1753q0.40088 0.02232 0.69039 0.02232 1.2918 0 1.7818-0.6236 0.5122-0.64588 0.5122-2.6503v-2.962q0-1.8485-0.57904-2.4053-0.57904-0.55676-2.4053-0.55676z"/>
		<path d="m67.891 43.78v4.6993h-9.2645v-4.6993zm0 6.5031v29.554h-9.2645v-29.554z"/>
		<path d="m71.366 43.78h9.4433q3.8306 0 5.8796 0.60132 2.0713 0.60132 3.0958 1.7371 1.0468 1.1359 1.4031 2.7615 0.3786 1.6035 0.3786 4.9888v3.1401q0 3.4521-0.71267 5.0332-0.71267 1.5813-2.628 2.4275-1.893 0.8463-4.9664 0.8463h-2.5165v14.521h-9.3761zm9.3761 6.1692v9.1753q0.40088 0.02232 0.69039 0.02232 1.2918 0 1.7818-0.6236 0.5122-0.64588 0.5122-2.6503v-2.962q0-1.8485-0.57904-2.4053-0.57904-0.55684-2.4053-0.55676z"/>
		<path d="m104.2 69.88q0 0.11136-0.0668 0.25611-0.41202 0.8129-0.95765 1.6814-0.54564 0.86858-1.1804 1.7038-0.63476 0.83518-1.3363 1.5813-0.69038 0.73491-1.3919 1.3029-0.6904 0.55676-1.3697 0.8909-0.66816 0.32293-1.2584 0.32293-1.2918 0-2.0267-0.97989-0.72383-0.97989-0.76839-2.8953l-0.14472-0.05564q-0.11135 0.11136-0.36748 0.45657-0.24498 0.34521-0.60132 0.80174-0.34521 0.44541-0.77946 0.93537-0.42317 0.48996-0.87974 0.8909-0.27838 0.23385-0.67923 0.56792-0.38973 0.32293-0.8909 0.63476-0.48996 0.30066-1.0801 0.53448-0.59016 0.2227-1.2471 0.25611-0.79062 0-1.2471-0.30066-0.45659-0.30066-0.69041-0.7683-0.23384-0.46769-0.30066-1.0356-0.05569-0.56792-0.05569-1.1024 0-0.06685 0.02228-0.33406 0.02227-0.26726 0.06681-0.66811 0.04454-0.41203 0.11135-0.91314 0.07794-0.50112 0.17818-1.0134 0.11135-0.52336 0.24499-1.0245 0.14475-0.5122 0.33406-0.93537 0.10022-0.23385 0.17818-0.43429 0.08908-0.20044 0.17817-0.33406 0.10022-0.14477 0.2227-0.22272 0.12249-0.08907 0.30066-0.10021 0.2227 0 0.36748 0.08906 0.15589 0.08907 0.24498 0.23385 0.08909 0.13361 0.12249 0.30066 0.04454 0.16704 0.04454 0.33409 0 0.16702-0.15589 0.65699-0.14476 0.48996-0.32293 1.1915-0.17818 0.70155-0.33408 1.57-0.14476 0.85742-0.14476 1.7818 0 0.17816 0.03339 0.42317 0.03339 0.23385 0.13363 0.45657 0.10022 0.21156 0.26724 0.36745 0.17818 0.14477 0.45657 0.14477 0.37861-0.02232 0.77946-0.1559 0.40088-0.14477 0.79062-0.35633 0.40088-0.22272 0.76839-0.48996 0.36748-0.27838 0.66811-0.56792 0.32293-0.30066 0.67923-0.69039 0.36748-0.40088 0.71267-0.82406 0.3452-0.43429 0.64587-0.85742 0.30066-0.42313 0.50113-0.77946 0.10021-0.18931 0.27838-0.55676 0.1893-0.36748 0.36748-0.77946 0.18931-0.41201 0.33406-0.77946 0.1559-0.36748 0.20045-0.55676 0.04457-0.16704 0.06683-0.31178 0.03339-0.14477 0.06683-0.27839 0.03339-0.14477 0.07794-0.30066 0.04457-0.15589 0.11136-0.35633 0.03339-0.07796 0.12249-0.16704 0.10022-0.10022 0.23384-0.17816 0.13363-0.07796 0.27839-0.12249 0.14476-0.05565 0.27839-0.05565 0.31178 0 0.46769 0.18931 0.16703 0.1893 0.18929 0.46769 0 0.01112-0.05567 0.25611-0.04457 0.24498-0.12249 0.64587-0.07795 0.40088-0.16704 0.91305-0.07795 0.5122-0.1559 1.0579-0.07794 0.53448-0.13363 1.0579-0.0445 0.5122-0.0445 0.92421 0 1.1804 0.38973 1.8263 0.40088 0.63471 1.0468 0.63471 0.55675 0 1.1581-0.32293 0.61243-0.33406 1.2249-0.86858 0.6236-0.53448 1.2138-1.1915 0.60132-0.66811 1.147-1.3251 0.54564-0.66811 1.0134-1.2695 0.46773-0.60132 0.81291-1.0134 0.3452-0.36748 0.54563-0.36748 0.1225 0 0.20044 0.08907 0.078 0.08906 0.078 0.21156z"/>
		<path d="m113.5 70.472q0 1.2025-0.27839 2.2383-0.27838 1.0357-0.80174 1.9599-0.52336 0.91305-1.2918 1.7483-0.76839 0.82406-1.7371 1.6369-0.36748 0.30066-0.83513 0.59016-0.45657 0.28951-0.95766 0.5122-0.50112 0.2227-1.0134 0.36748-0.50113 0.13362-0.94654 0.13362-0.32293 0-0.52336-0.06684-0.20043-0.07795-0.35632-0.21158-0.14476-0.13362-0.27839-0.31178-0.13362-0.1893-0.31179-0.41203-0.25611 0.75723-0.41203 1.2695-0.15588 0.51224-0.2561 0.91314-0.10023 0.40088-0.1559 0.75723-0.0557 0.36748-0.11136 0.82406-0.0557 0.45657-0.14476 1.0801-0.0779 0.63471-0.2227 1.559-0.0223 0.17817-0.12249 0.41203-0.10024 0.23384-0.24499 0.4454-0.13362 0.21157-0.30066 0.35633-0.15589 0.14476-0.30065 0.14476-0.1559 0-0.37861-0.10021-0.22271-0.08907-0.42318-0.23384-0.20043-0.13363-0.34517-0.27839-0.14476-0.14477-0.14476-0.24498 0-0.38973 0.0891-0.77946 0.10023-0.38973 0.16704-0.74607 0.3452-1.7594 0.71267-3.296 0.3786-1.5368 0.67923-3.0511 0.30066-1.5145 0.48996-3.1179 0.20045-1.6146 0.20045-3.5187 0-0.04453-0.0111-0.20044 0-0.16704 0-0.3452 0-0.18931-0.0111-0.34521 0-0.1559 0-0.21156 0-0.36748 0.0891-0.72383 0.10022-0.35633 0.2784-0.63471 0.17816-0.28954 0.41202-0.46769 0.24498-0.17816 0.53448-0.17816 0.12249 0 0.24498 0.13363 0.12249 0.12249 0.22271 0.3452 0.10021 0.21158 0.15589 0.5122 0.0669 0.30066 0.0669 0.64587 0 0.57904-0.0669 1.3251-0.0667 0.74606-0.16703 1.5145-0.0891 0.75723-0.1893 1.4476-0.10022 0.69039-0.15589 1.1581 0.43429-0.97989 1.0022-1.8708 0.57904-0.8909 1.2026-1.648 0.62355-0.75714 1.2695-1.3585 0.65699-0.61244 1.2584-1.0468 0.60131-0.43429 1.1247-0.65699 0.52336-0.23384 0.89089-0.23384 0.50109 0 0.93538 0.20044 0.4454 0.18929 0.76839 0.5122 0.33405 0.31178 0.51219 0.72383 0.18931 0.40088 0.18931 0.82406zm-1.8263 1.0356q0-0.48996-0.11135-0.79062t-0.26724-0.45657q-0.15589-0.16704-0.33406-0.22272-0.16702-0.05564-0.27838-0.05564-0.4454 0-1.0245 0.40088-0.57904 0.38972-1.2025 1.0356-0.6236 0.63471-1.2472 1.4476-0.62358 0.8129-1.1581 1.6369-0.13363 0.21158-0.35634 0.56792-0.21157 0.35633-0.41203 0.74606-0.20043 0.37861-0.34519 0.72383-0.14477 0.34521-0.14477 0.52336 0 0.10023 0.0891 0.25611 0.0891 0.1559 0.25611 0.31179 0.17816 0.14477 0.43428 0.25611 0.26725 0.11136 0.61244 0.11136 0.46769 0 1.0579-0.27839 0.59016-0.28954 1.1915-0.76839 0.61243-0.48996 1.1915-1.1359 0.59015-0.64588 1.0356-1.3585 0.45657-0.72383 0.73491-1.481 0.27836-0.75714 0.27839-1.4699z"/>
	</g>
	<metadata>
		<rdf:RDF>
			<cc:Work rdf:about="">
				<cc:license rdf:resource="http://creativecommons.org/licenses/by/4.0/"/>
			</cc:Work>
			<cc:License rdf:about="http://creativecommons.org/licenses/by/4.0/">
				<cc:permits rdf:resource="http://creativecommons.org/ns#Reproduction"/>
				<cc:permits rdf:resource="http://creativecommons.org/ns#Distribution"/>
				<cc:requires rdf:resource="http://creativecommons.org/ns#Notice"/>
				<cc:requires rdf:resource="http://creativecommons.org/ns#Attribution"/>
				<cc:permits rdf:resource="http://creativecommons.org/ns#DerivativeWorks"/>
			</cc:License>
		</rdf:RDF>
	</metadata>
</svg>
