<?xml version="1.0" encoding="UTF-8"?>
<svg width="200" height="112.5" version="1.1" viewBox="0 0 200 112.5" xmlns="http://www.w3.org/2000/svg" xmlns:cc="http://creativecommons.org/ns#" xmlns:rdf="http://www.w3.org/1999/02/22-rdf-syntax-ns#">
	<path d="m138.58 11.784h47.451c2.9676 0 4.9373 2.389 4.4165 5.3568l-4.7776 27.221c-0.52085 2.9676-3.3292 5.3567-6.2969 5.3567h-27.398l-16.141 11.694 2.8894-11.694h-6.8025c-2.9676 0-4.9373-2.3891-4.4165-5.3567l4.7776-27.221c0.52085-2.9676 3.3292-5.3568 6.2969-5.3568z" fill="none" stroke="#000" stroke-width="4.3"/>
	<path d="m15.358 42.362h13.961q5.6633 0 8.6926 0.889 3.0622 0.889 4.5769 2.5681 1.5476 1.6793 2.0743 4.0827 0.55974 2.3706 0.55974 7.3754v4.6424q0 5.1036-1.0536 7.4413-1.0536 2.3378-3.8853 3.5889-2.7987 1.2512-7.3424 1.2512h-3.7205v21.468h-13.862zm13.862 9.1204v13.565q0.59267 0.03301 1.0207 0.03301 1.9098 0 2.6342-0.92193 0.75728-0.95486 0.75728-3.9183v-4.3791q0-2.7328-0.85607-3.556-0.85607-0.82314-3.556-0.82314z"/>
	<path d="m62.509 42.362v6.9476h-13.697v-6.9476zm0 9.6142v43.693h-13.697v-43.693z"/>
	<path d="m67.642 42.362h13.961q5.6633 0 8.6926 0.889 3.0622 0.889 4.5769 2.5681 1.5476 1.6793 2.0743 4.0827 0.55974 2.3706 0.55974 7.3754v4.6424q0 5.1036-1.0536 7.4413-1.0536 2.3378-3.8853 3.5889-2.7987 1.2512-7.3424 1.2512h-3.7205v21.468h-13.862zm13.862 9.1204v13.565q0.59267 0.03301 1.0207 0.03301 1.9098 0 2.6342-0.92193 0.75728-0.95486 0.75728-3.9183v-4.3791q0-2.7328-0.85607-3.556-0.85607-0.82322-3.556-0.82314z"/>
	<path d="m116.19 80.953q0 0.16463-0.0988 0.37864-0.60915 1.2018-1.4158 2.4859-0.80669 1.2841-1.7451 2.5189-0.93841 1.2348-1.9756 2.3378-1.0207 1.0865-2.0579 1.9262-1.0207 0.82314-2.025 1.3171-0.9878 0.47743-1.8604 0.47743-1.9098 0-2.9963-1.4487-1.0701-1.4487-1.136-4.2805l-0.21401-0.08226q-0.16463 0.16464-0.54329 0.67498-0.36219 0.51036-0.889 1.1853-0.51036 0.65853-1.1524 1.3829-0.6256 0.72439-1.3006 1.3171-0.41157 0.34572-1.0042 0.83959-0.57618 0.47743-1.3171 0.93842-0.72439 0.4445-1.5968 0.79021-0.87252 0.32925-1.8438 0.37864-1.1689 0-1.8438-0.4445-0.67498-0.4445-1.0207-1.1359-0.34572-0.69146-0.4445-1.531-0.08232-0.83963-0.08232-1.6298 0-0.09883 0.03293-0.49388 0.03293-0.39512 0.09877-0.98776 0.06585-0.60915 0.16462-1.35 0.11524-0.74084 0.26342-1.4982 0.16462-0.77377 0.36219-1.5146 0.21401-0.75728 0.49388-1.3829 0.14816-0.34572 0.26342-0.64204 0.1317-0.29633 0.26341-0.49388 0.14816-0.21403 0.32925-0.32927 0.18109-0.13168 0.4445-0.14816 0.32925 0 0.54329 0.13168 0.23048 0.13168 0.36219 0.34572 0.13171 0.19754 0.18109 0.4445 0.06585 0.24695 0.06585 0.49392 0 0.24693-0.23048 0.97131-0.21401 0.72439-0.47743 1.7615-0.26342 1.0372-0.49392 2.3212-0.21401 1.2676-0.21401 2.6342 0 0.2634 0.04939 0.6256 0.04939 0.34572 0.19756 0.67498 0.14816 0.31278 0.39509 0.54325 0.26342 0.21403 0.67498 0.21403 0.55974-0.033 1.1524-0.23048 0.59267-0.21403 1.1689-0.52681 0.59267-0.32927 1.136-0.72439 0.54329-0.41157 0.98776-0.83963 0.47743-0.4445 1.0042-1.0207 0.54329-0.59267 1.0536-1.2183 0.51036-0.64204 0.95486-1.2676t0.74084-1.1524q0.14816-0.27988 0.41157-0.82314 0.27987-0.54329 0.54329-1.1524 0.27987-0.60912 0.49388-1.1524 0.23048-0.54329 0.29634-0.82314 0.0659-0.24695 0.0988-0.46095 0.0494-0.21403 0.0988-0.41157 0.0494-0.21403 0.11524-0.4445 0.0659-0.23047 0.16463-0.52681 0.0494-0.11526 0.18109-0.24695 0.14816-0.14816 0.34572-0.2634 0.19756-0.11526 0.41157-0.18109 0.21402-0.08227 0.41158-0.08227 0.46094 0 0.69142 0.27988 0.24694 0.27987 0.27986 0.69142 0 0.01641-0.0823 0.37864-0.0659 0.36219-0.18109 0.95486-0.11524 0.59267-0.24695 1.3499-0.11524 0.75728-0.23048 1.564-0.11524 0.79021-0.19756 1.564-0.0658 0.75728-0.0658 1.3664 0 1.7451 0.57618 2.7 0.59267 0.93838 1.5476 0.93838 0.82314 0 1.7121-0.47743 0.90544-0.49388 1.8109-1.2841 0.92193-0.79021 1.7945-1.7615 0.889-0.98776 1.6957-1.959 0.80669-0.98776 1.4982-1.8768 0.6915-0.889 1.2018-1.4982 0.51036-0.54329 0.8067-0.54329 0.18109 0 0.29633 0.13168 0.11525 0.13168 0.11525 0.31278z"/>
	<path d="m129.94 81.826q0 1.7779-0.41157 3.3091t-1.1853 2.8975q-0.77376 1.3499-1.9098 2.5847-1.136 1.2183-2.5681 2.42-0.54329 0.4445-1.2347 0.87252-0.67498 0.42802-1.4158 0.75728-0.74084 0.32925-1.4982 0.54329-0.74084 0.19755-1.3994 0.19755-0.47743 0-0.77376-0.09883-0.29634-0.11525-0.52681-0.3128-0.21401-0.19754-0.41157-0.46095-0.19755-0.27986-0.46095-0.60915-0.37864 1.1195-0.60915 1.8768-0.23048 0.75732-0.37864 1.35-0.14818 0.59267-0.23048 1.1195-0.0823 0.54329-0.16463 1.2183-0.0823 0.67497-0.21403 1.5968-0.11525 0.93838-0.32925 2.3048-0.033 0.26341-0.18109 0.60915-0.14818 0.34572-0.36219 0.65853-0.19756 0.31279-0.4445 0.52681-0.23048 0.21401-0.4445 0.21401-0.23048 0-0.55974-0.14816-0.32927-0.13168-0.6256-0.34572-0.29633-0.19756-0.51032-0.41157-0.21402-0.21403-0.21402-0.36219 0-0.57618 0.13168-1.1524 0.14818-0.57619 0.24695-1.103 0.51036-2.6011 1.0536-4.8728 0.55974-2.272 1.0042-4.5109 0.4445-2.239 0.72439-4.6095 0.29634-2.3871 0.29634-5.2021 0-0.06584-0.0164-0.29633 0-0.24695 0-0.51036 0-0.27988-0.0164-0.51036 0-0.23048 0-0.31278 0-0.54329 0.13167-1.0701 0.14818-0.52681 0.41158-0.93838 0.26341-0.42806 0.60915-0.69146 0.36218-0.2634 0.79021-0.2634 0.18109 0 0.36219 0.19756 0.18109 0.18109 0.32926 0.51036 0.14816 0.3128 0.23048 0.75728 0.0988 0.4445 0.0988 0.95486 0 0.85607-0.0988 1.959-0.0988 1.103-0.24695 2.239-0.13167 1.1195-0.27986 2.1401-0.14818 1.0207-0.23048 1.7121 0.64205-1.4487 1.4816-2.7658 0.85607-1.3171 1.7779-2.4365 0.92185-1.1194 1.8768-2.0084 0.97131-0.90545 1.8604-1.5476 0.889-0.64204 1.6628-0.97131 0.77377-0.34572 1.3171-0.34572 0.74084 0 1.3829 0.29633 0.65853 0.27986 1.136 0.75728 0.49388 0.46095 0.75728 1.0701 0.27987 0.59267 0.27987 1.2183zm-2.7 1.531q0-0.72435-0.16463-1.1689t-0.39509-0.67498q-0.23048-0.24695-0.49388-0.32927-0.24694-0.08226-0.41157-0.08226-0.65852 0-1.5146 0.59267-0.85607 0.57618-1.7779 1.531-0.92193 0.93838-1.8438 2.1401-0.92193 1.2018-1.7121 2.42-0.19756 0.3128-0.52681 0.83963-0.3128 0.52681-0.60915 1.103-0.29634 0.55974-0.51036 1.0701-0.21403 0.51036-0.21403 0.77376 0 0.14818 0.13168 0.37864 0.13168 0.23048 0.37864 0.46095 0.2634 0.21403 0.64204 0.37864 0.39509 0.16463 0.90545 0.16463 0.69146 0 1.564-0.41157 0.87252-0.42806 1.7615-1.136 0.90545-0.72435 1.7615-1.6793 0.87252-0.95486 1.531-2.0084 0.67497-1.0701 1.0865-2.1895t0.41157-2.1731z"/>
	<metadata>
		<rdf:RDF>
			<cc:Work rdf:about="">
				<cc:license rdf:resource="http://creativecommons.org/licenses/by/4.0/"/>
			</cc:Work>
			<cc:License rdf:about="http://creativecommons.org/licenses/by/4.0/">
				<cc:permits rdf:resource="http://creativecommons.org/ns#Reproduction"/>
				<cc:permits rdf:resource="http://creativecommons.org/ns#Distribution"/>
				<cc:requires rdf:resource="http://creativecommons.org/ns#Notice"/>
				<cc:requires rdf:resource="http://creativecommons.org/ns#Attribution"/>
				<cc:permits rdf:resource="http://creativecommons.org/ns#DerivativeWorks"/>
			</cc:License>
		</rdf:RDF>
	</metadata>
</svg>
