<?xml version="1.0" encoding="UTF-8"?>
<svg width="320" height="180" version="1.1" viewBox="0 0 320 180" xmlns="http://www.w3.org/2000/svg" xmlns:cc="http://creativecommons.org/ns#" xmlns:rdf="http://www.w3.org/1999/02/22-rdf-syntax-ns#">
	<rect width="320" height="180" fill="#59b"/>
	<path d="m221.73 18.854h75.922c4.7482 0 7.8997 3.8224 7.0664 8.5709l-7.6442 43.554c-0.83336 4.7482-5.3267 8.5707-10.075 8.5707h-43.837l-25.826 18.71 4.623-18.71h-10.884c-4.7482 0-7.8997-3.8226-7.0664-8.5707l7.6442-43.554c0.83336-4.7482 5.3267-8.5709 10.075-8.5709z" fill="none" stroke="#fff" stroke-width="4.3"/>
	<g fill="#fff">
		<path d="m24.573 67.779h22.338q9.0613 0 13.908 1.4224 4.8995 1.4224 7.323 4.109 2.4762 2.6869 3.3189 6.5323 0.89558 3.793 0.89558 11.801v7.4278q0 8.1658-1.6858 11.906-1.6858 3.7405-6.2165 5.7422-4.4779 2.0019-11.748 2.0019h-5.9528v34.349h-22.179zm22.179 14.593v21.704q0.94827 0.0528 1.6331 0.0528 3.0557 0 4.2147-1.4751 1.2116-1.5278 1.2116-6.2693v-7.0066q0-4.3725-1.3697-5.6896-1.3697-1.317-5.6896-1.317z"/>
		<path d="m100.01 67.779v11.116h-21.915v-11.116zm0 15.383v69.909h-21.915v-69.909z"/>
		<path d="m108.23 67.779h22.338q9.0613 0 13.908 1.4224 4.8995 1.4224 7.323 4.109 2.4762 2.6869 3.3189 6.5323 0.89558 3.793 0.89558 11.801v7.4278q0 8.1658-1.6858 11.906-1.6858 3.7405-6.2165 5.7422-4.4779 2.0019-11.748 2.0019h-5.9528v34.349h-22.179zm22.179 14.593v21.704q0.94827 0.0528 1.6331 0.0528 3.0557 0 4.2147-1.4751 1.2116-1.5278 1.2116-6.2693v-7.0066q0-4.3725-1.3697-5.6896-1.3697-1.3172-5.6896-1.317z"/>
		<path d="m185.9 129.52q0 0.26341-0.15808 0.60582-0.97464 1.9229-2.2653 3.9774-1.2907 2.0546-2.7922 4.0302t-3.161 3.7405q-1.6331 1.7384-3.2926 3.0819-1.6331 1.317-3.24 2.1074-1.5805 0.76389-2.9766 0.76389-3.0557 0-4.7941-2.3179-1.7122-2.3179-1.8176-6.8488l-0.34242-0.13161q-0.2634 0.26342-0.86926 1.08-0.5795 0.81658-1.4224 1.8965-0.81658 1.0536-1.8438 2.2126-1.001 1.159-2.081 2.1074-0.65851 0.55316-1.6067 1.3434-0.92189 0.76389-2.1074 1.5015-1.159 0.7112-2.5549 1.2643-1.396 0.5268-2.9501 0.60582-1.8702 0-2.9501-0.7112-1.08-0.7112-1.6331-1.8174-0.55315-1.1063-0.7112-2.4496-0.13171-1.3434-0.13171-2.6077 0-0.15813 0.0527-0.79021 0.0527-0.63219 0.15803-1.5804 0.10536-0.97464 0.26339-2.16 0.18438-1.1854 0.42147-2.3971 0.26339-1.238 0.57951-2.4234 0.34241-1.2116 0.7902-2.2126 0.23706-0.55316 0.42148-1.0273 0.21072-0.47413 0.42145-0.79021 0.23706-0.34244 0.5268-0.52683 0.28975-0.21069 0.7112-0.23705 0.5268 0 0.86927 0.21068 0.36876 0.21069 0.5795 0.55316 0.21074 0.31606 0.28974 0.7112 0.10536 0.39512 0.10536 0.79027 0 0.39509-0.36876 1.5541-0.34242 1.159-0.76389 2.8184-0.42147 1.6595-0.79027 3.7139-0.34242 2.0282-0.34242 4.2147 0 0.42144 0.079 1.001 0.079 0.55316 0.3161 1.08 0.23706 0.50045 0.63214 0.8692 0.42148 0.34245 1.08 0.34245 0.89559-0.0528 1.8438-0.36877 0.94827-0.34245 1.8702-0.84289 0.94827-0.52684 1.8176-1.159 0.86927-0.65851 1.5804-1.3434 0.76389-0.7112 1.6067-1.6331 0.86926-0.94827 1.6858-1.9493 0.81657-1.0273 1.5278-2.0282 0.7112-1.0009 1.1854-1.8438 0.23705-0.4478 0.65851-1.317 0.44779-0.86926 0.86926-1.8438 0.4478-0.97459 0.79021-1.8438 0.36877-0.86926 0.47415-1.317 0.10544-0.39512 0.15808-0.73752 0.079-0.34245 0.15808-0.65852 0.079-0.34244 0.18438-0.7112 0.10544-0.36875 0.26341-0.84289 0.079-0.18442 0.28974-0.39512 0.23706-0.23706 0.55315-0.42144 0.3161-0.18442 0.65852-0.28975 0.34243-0.13163 0.65852-0.13163 0.73751 0 1.1063 0.44781 0.3951 0.44779 0.44777 1.1063 0 0.0263-0.13168 0.60583-0.10544 0.5795-0.28974 1.5278-0.18439 0.94827-0.39512 2.1598-0.18439 1.2116-0.36877 2.5024-0.18438 1.2643-0.3161 2.5024-0.10528 1.2116-0.10528 2.1862 0 2.7922 0.92189 4.32 0.94827 1.5014 2.4762 1.5014 1.317 0 2.7394-0.76389 1.4487-0.79021 2.8974-2.0546 1.4751-1.2643 2.8712-2.8184 1.4224-1.5804 2.7131-3.1344 1.2907-1.5804 2.3971-3.0029 1.1064-1.4224 1.9229-2.3971 0.81658-0.86926 1.2907-0.86926 0.28975 0 0.47413 0.21069 0.1844 0.21068 0.1844 0.50044z"/>
		<path d="m207.9 130.92q0 2.8446-0.65851 5.2946t-1.8965 4.636q-1.238 2.1598-3.0557 4.1355-1.8176 1.9493-4.109 3.872-0.86927 0.7112-1.9755 1.396-1.08 0.68483-2.2653 1.2116-1.1854 0.5268-2.3971 0.86926-1.1854 0.31608-2.239 0.31608-0.76389 0-1.238-0.15812-0.47414-0.1844-0.84289-0.50048-0.34242-0.31607-0.65852-0.73752-0.31608-0.44778-0.73752-0.97464-0.60582 1.7912-0.97464 3.0029-0.36876 1.2117-0.60582 2.16-0.23709 0.94827-0.36877 1.7912-0.13168 0.86926-0.26341 1.9493-0.13168 1.08-0.34244 2.5549-0.1844 1.5014-0.5268 3.6877-0.0528 0.42145-0.28975 0.97464-0.23709 0.55315-0.5795 1.0536-0.3161 0.50047-0.7112 0.8429-0.36877 0.34242-0.7112 0.34242-0.36877 0-0.89559-0.23706-0.52683-0.21069-1.001-0.55315-0.47412-0.3161-0.81651-0.65851-0.34243-0.34245-0.34243-0.57951 0-0.92189 0.21069-1.8438 0.23709-0.9219 0.39512-1.7648 0.81657-4.1618 1.6858-7.7965 0.89558-3.6352 1.6067-7.2174 0.7112-3.5824 1.159-7.3752 0.47415-3.8194 0.47415-8.3234 0-0.10534-0.0262-0.47413 0-0.39512 0-0.81657 0-0.44781-0.0262-0.81658 0-0.36877 0-0.50045 0-0.86926 0.21067-1.7122 0.23709-0.84289 0.65853-1.5014 0.42145-0.6849 0.97464-1.1063 0.57948-0.42144 1.2643-0.42144 0.28975 0 0.57951 0.3161 0.28974 0.28974 0.52681 0.81657 0.23706 0.50048 0.36877 1.2116 0.15808 0.7112 0.15808 1.5278 0 1.3697-0.15808 3.1344-0.15808 1.7648-0.39512 3.5824-0.21067 1.7912-0.44778 3.4242-0.23708 1.6331-0.36876 2.7394 1.0273-2.3179 2.3706-4.4253 1.3697-2.1074 2.8446-3.8984 1.475-1.791 3.0029-3.2134 1.5541-1.4487 2.9766-2.4762 1.4224-1.0273 2.6605-1.5541 1.238-0.55315 2.1074-0.55315 1.1853 0 2.2126 0.47413 1.0536 0.44777 1.8176 1.2116 0.7902 0.73752 1.2116 1.7122 0.4478 0.94828 0.4478 1.9493zm-4.32 2.4496q0-1.159-0.26341-1.8702t-0.63214-1.08q-0.36877-0.39512-0.79021-0.52683-0.3951-0.13162-0.65851-0.13162-1.0536 0-2.4234 0.94828-1.3697 0.92188-2.8446 2.4496-1.4751 1.5014-2.9501 3.4242-1.4751 1.9229-2.7394 3.872-0.3161 0.50048-0.8429 1.3434-0.50048 0.8429-0.97464 1.7648-0.47414 0.89559-0.81657 1.7122-0.34245 0.81658-0.34245 1.238 0 0.23709 0.21069 0.60582 0.21068 0.36877 0.60582 0.73752 0.42144 0.34245 1.0273 0.60583 0.63215 0.26341 1.4487 0.26341 1.1063 0 2.5024-0.65852 1.396-0.68489 2.8184-1.8176 1.4487-1.159 2.8184-2.6869 1.396-1.5278 2.4496-3.2134 1.08-1.7122 1.7384-3.5032 0.65845-1.791 0.65852-3.477z"/>
	</g>
	<metadata>
		<rdf:RDF>
			<cc:Work rdf:about="">
				<cc:license rdf:resource="http://creativecommons.org/licenses/by/4.0/"/>
			</cc:Work>
			<cc:License rdf:about="http://creativecommons.org/licenses/by/4.0/">
				<cc:permits rdf:resource="http://creativecommons.org/ns#Reproduction"/>
				<cc:permits rdf:resource="http://creativecommons.org/ns#Distribution"/>
				<cc:requires rdf:resource="http://creativecommons.org/ns#Notice"/>
				<cc:requires rdf:resource="http://creativecommons.org/ns#Attribution"/>
				<cc:permits rdf:resource="http://creativecommons.org/ns#DerivativeWorks"/>
			</cc:License>
		</rdf:RDF>
	</metadata>
</svg>
