<?xml version="1.0" encoding="UTF-8"?>
<svg width="108" height="108" version="1.1" viewBox="0 0 108 108" xmlns="http://www.w3.org/2000/svg" xmlns:cc="http://creativecommons.org/ns#" xmlns:rdf="http://www.w3.org/1999/02/22-rdf-syntax-ns#">
	<path d="m35.539 34.941h42.949c2.686 0 4.4688 2.1623 3.9973 4.8485l-4.3242 24.637c-0.47142 2.686-3.0132 4.8483-5.6993 4.8483h-24.798l-14.609 10.584 2.6152-10.584h-6.1569c-2.686 0-4.4688-2.1623-3.9973-4.8483l4.3242-24.637c0.47142-2.686 3.0132-4.8485 5.6993-4.8485z" fill="none" stroke="#fff" stroke-width="2.8828"/>
	<g fill="#fff">
		<path d="m33.558 41.788h5.1967q2.108 0 3.2356 0.33091 1.1398 0.33091 1.7036 0.95592 0.57606 0.62508 0.7721 1.5197 0.20835 0.88241 0.20835 2.7454v1.7281q0 1.8997-0.39218 2.7698-0.39218 0.8702-1.4462 1.3359-1.0417 0.46572-2.733 0.46572h-1.3849v7.991h-5.1597zm5.1597 3.3949v5.0493q0.2206 0.01227 0.37992 0.01227 0.71088 0 0.98051-0.34316 0.28188-0.35542 0.28188-1.4585v-1.6301q0-1.0172-0.31865-1.3236-0.31865-0.30638-1.3236-0.30638z"/>
		<path d="m51.108 41.788v2.586h-5.0983v-2.586zm0 3.5787v16.263h-5.0983v-16.263z"/>
		<path d="m53.02 41.788h5.1967q2.108 0 3.2356 0.33091 1.1398 0.33091 1.7036 0.95592 0.57606 0.62508 0.7721 1.5197 0.20835 0.88241 0.20835 2.7454v1.7281q0 1.8997-0.39218 2.7698-0.39218 0.8702-1.4462 1.3359-1.0417 0.46572-2.733 0.46572h-1.3849v7.991h-5.1597zm5.1597 3.3949v5.0493q0.2206 0.01227 0.37992 0.01227 0.71088 0 0.9805-0.34316 0.28186-0.35542 0.28186-1.4585v-1.6301q0-1.0172-0.31865-1.3236-0.31865-0.30643-1.3236-0.30638z"/>
		<path d="m71.089 56.151q0 0.06128-0.03677 0.14094-0.22674 0.44735-0.52701 0.9253-0.30028 0.47798-0.64958 0.93759-0.3493 0.45961-0.73538 0.8702-0.37992 0.40442-0.766 0.71697-0.37992 0.30639-0.75376 0.49026-0.36769 0.1777-0.69248 0.1777-0.71088 0-1.1153-0.53924-0.39832-0.53924-0.42285-1.5933l-0.07967-0.03063q-0.06128 0.06128-0.20223 0.25125-0.13481 0.18997-0.33091 0.44121-0.18997 0.24511-0.42894 0.51474-0.23287 0.26963-0.48412 0.49026-0.1532 0.12869-0.37378 0.31252-0.21446 0.1777-0.49026 0.34932-0.26962 0.16546-0.59437 0.29412-0.32477 0.12255-0.68632 0.14094-0.43508 0-0.68631-0.16546-0.25125-0.16546-0.37992-0.4228-0.12868-0.25736-0.16546-0.56987-0.03064-0.31253-0.03064-0.60666 0-0.03679 0.01225-0.18383 0.01225-0.14707 0.03677-0.36766 0.02452-0.22674 0.06128-0.50251 0.04289-0.27577 0.09805-0.55766 0.06128-0.28801 0.13482-0.56378 0.07966-0.28188 0.18383-0.51474 0.05515-0.12869 0.09805-0.23899 0.04903-0.1103 0.09805-0.18384 0.05515-0.07967 0.12255-0.12256 0.06741-0.04902 0.16546-0.05515 0.12255 0 0.20223 0.04901 0.08579 0.04902 0.13482 0.12869 0.04903 0.07353 0.06741 0.16546 0.02452 0.09192 0.02452 0.18385 0 0.09191-0.08579 0.36155-0.07966 0.26963-0.17771 0.65567-0.09805 0.38607-0.18384 0.86401-0.07966 0.47184-0.07966 0.98051 0 0.09804 0.01837 0.23287 0.01837 0.12869 0.07354 0.25125 0.05515 0.11643 0.14706 0.20222 0.09805 0.07967 0.25125 0.07967 0.20836-0.01227 0.42894-0.08579 0.2206-0.07967 0.43508-0.19609 0.2206-0.12257 0.42285-0.26963 0.20223-0.1532 0.36767-0.31252 0.1777-0.16546 0.37378-0.37992 0.20223-0.2206 0.39218-0.45348 0.18997-0.239 0.35542-0.47184t0.27577-0.42894q0.05515-0.10418 0.1532-0.30639 0.10418-0.20223 0.20223-0.42894 0.10418-0.22673 0.18384-0.42894 0.08579-0.20223 0.11031-0.30638 0.02453-0.09192 0.03678-0.17158 0.01837-0.07967 0.03677-0.1532 0.01837-0.07967 0.04289-0.16546 0.02453-0.08579 0.06128-0.19609 0.01837-0.0429 0.0674-0.09192 0.05515-0.05515 0.12868-0.09804 0.07354-0.0429 0.1532-0.06741 0.07967-0.03063 0.1532-0.03063 0.17158 0 0.25736 0.10418 0.09192 0.10418 0.10417 0.25736 0 0.0062-0.03063 0.14094-0.02453 0.13481-0.0674 0.35542-0.0429 0.22061-0.09192 0.50246-0.04289 0.28188-0.08579 0.58217-0.04289 0.29412-0.07354 0.58217-0.02449 0.28186-0.02449 0.5086 0 0.64958 0.21446 1.005 0.22061 0.34928 0.57606 0.34928 0.30638 0 0.6373-0.1777 0.33702-0.18384 0.67406-0.47798 0.34316-0.29412 0.66796-0.65567 0.33091-0.36766 0.63117-0.72919 0.30028-0.36767 0.55767-0.6986 0.2574-0.33091 0.44735-0.55767 0.18997-0.20223 0.30028-0.20223 0.06741 0 0.1103 0.04902 0.0429 0.04902 0.0429 0.11642z"/>
		<path d="m76.207 56.478q0 0.66176-0.1532 1.2317-0.1532 0.56997-0.44121 1.0785-0.28801 0.50246-0.71088 0.96209-0.42285 0.45349-0.95592 0.90079-0.20223 0.16546-0.45958 0.32477-0.25125 0.15932-0.527 0.28186-0.27577 0.12256-0.55767 0.20223-0.27576 0.07353-0.52088 0.07353-0.1777 0-0.28801-0.03678-0.1103-0.0429-0.19609-0.11643-0.07966-0.07353-0.1532-0.17158-0.07353-0.10417-0.17158-0.22674-0.14094 0.41671-0.22674 0.6986-0.08579 0.28189-0.14094 0.50251-0.05516 0.2206-0.08579 0.41671-0.03063 0.20223-0.06128 0.45348-0.03063 0.25125-0.07967 0.59437-0.0429 0.34928-0.12256 0.8579-0.01227 0.09805-0.06741 0.22674-0.05516 0.12868-0.13482 0.24511-0.07354 0.11643-0.16546 0.19609-0.08579 0.07966-0.16546 0.07966-0.08579 0-0.20836-0.05515-0.12256-0.04902-0.23287-0.12868-0.1103-0.07354-0.18995-0.1532-0.07967-0.07967-0.07967-0.13482 0-0.21446 0.04902-0.42894 0.05516-0.21448 0.09192-0.41057 0.18997-0.96821 0.39218-1.8138 0.20835-0.8457 0.37378-1.6791 0.16546-0.8334 0.26963-1.7158 0.1103-0.88855 0.1103-1.9364 0-0.02451-0.0061-0.1103 0-0.09192 0-0.18997 0-0.10418-0.0061-0.18997 0-0.08579 0-0.11643 0-0.20223 0.04901-0.39832 0.05516-0.19609 0.1532-0.34928 0.09805-0.15933 0.22674-0.25736 0.13481-0.09805 0.29412-0.09805 0.06741 0 0.13482 0.07354 0.06741 0.06741 0.12256 0.18997 0.05515 0.11643 0.08579 0.28186 0.03678 0.16546 0.03678 0.35542 0 0.31865-0.03678 0.72919-0.03677 0.41057-0.09192 0.83341-0.04901 0.41671-0.10417 0.79662-0.05516 0.37992-0.08579 0.6373 0.23899-0.53924 0.5515-1.0295 0.31865-0.49026 0.66176-0.90692 0.34315-0.41666 0.6986-0.74756 0.36155-0.33702 0.69248-0.57606 0.33091-0.23899 0.61894-0.36155 0.28802-0.12869 0.49026-0.12869 0.27575 0 0.51474 0.1103 0.24511 0.10417 0.42285 0.28188 0.18383 0.17158 0.28188 0.39832 0.10418 0.2206 0.10418 0.45348zm-1.005 0.56987q0-0.26962-0.06128-0.43508-0.06127-0.16546-0.14706-0.25125-0.08579-0.09192-0.18383-0.12256-0.09192-0.03062-0.1532-0.03062-0.24512 0-0.56378 0.2206-0.31865 0.21446-0.66176 0.56987-0.34316 0.34928-0.6863 0.79662-0.34316 0.44734-0.6373 0.90078-0.07354 0.11643-0.19609 0.31252-0.11643 0.19609-0.22674 0.41057-0.1103 0.20835-0.18997 0.39832-0.07967 0.18997-0.07967 0.28802 0 0.05516 0.04902 0.14094 0.04902 0.08579 0.14094 0.17158 0.09804 0.07967 0.23899 0.14094 0.14706 0.06128 0.33702 0.06128 0.25736 0 0.58217-0.1532 0.32477-0.15933 0.65567-0.42285 0.33702-0.26963 0.65567-0.62508 0.32477-0.35542 0.56987-0.74756 0.25125-0.39832 0.40442-0.81499 0.15318-0.41666 0.1532-0.80889z"/>
	</g>
	<metadata>
		<rdf:RDF>
			<cc:Work rdf:about="">
				<cc:license rdf:resource="http://creativecommons.org/licenses/by/4.0/"/>
			</cc:Work>
			<cc:License rdf:about="http://creativecommons.org/licenses/by/4.0/">
				<cc:permits rdf:resource="http://creativecommons.org/ns#Reproduction"/>
				<cc:permits rdf:resource="http://creativecommons.org/ns#Distribution"/>
				<cc:requires rdf:resource="http://creativecommons.org/ns#Notice"/>
				<cc:requires rdf:resource="http://creativecommons.org/ns#Attribution"/>
				<cc:permits rdf:resource="http://creativecommons.org/ns#DerivativeWorks"/>
			</cc:License>
		</rdf:RDF>
	</metadata>
</svg>
