<?xml version="1.0" encoding="UTF-8"?>
<svg width="512" height="512" version="1.1" viewBox="0 0 512 512" xmlns="http://www.w3.org/2000/svg" xmlns:cc="http://creativecommons.org/ns#" xmlns:rdf="http://www.w3.org/1999/02/22-rdf-syntax-ns#">
	<rect width="512" height="512" fill="#59b"/>
	<path d="m136.93 123.84h277.02c17.325 0 28.824 13.947 25.783 31.273l-27.891 158.91c-3.0407 17.325-19.435 31.272-36.761 31.272h-159.95l-94.231 68.267 16.868-68.267h-39.712c-17.325 0-28.824-13.947-25.783-31.272l27.891-158.91c3.0407-17.325 19.435-31.273 36.761-31.273z" fill="none" stroke="#fff" stroke-width="15.689"/>
	<g fill="#fff">
		<path d="m124.15 168h33.519q13.597 0 20.87 2.1344 7.3519 2.1344 10.988 6.1657 3.7156 4.0318 4.9801 9.802 1.3439 5.6916 1.3439 17.708v11.146q0 12.253-2.5296 17.865-2.5296 5.6128-9.3281 8.6164-6.7193 3.0039-17.628 3.0039h-8.9324v51.542h-33.28zm33.28 21.897v32.568q1.4229 0.0792 2.4505 0.0792 4.5852 0 6.3243-2.2134 1.8181-2.2925 1.8181-9.4073v-10.514q0-6.5611-2.0553-8.5375-2.0553-1.9762-8.5375-1.9762z"/>
		<path d="m237.35 168v16.68h-32.884v-16.68zm0 23.083v104.9h-32.884v-104.9z"/>
		<path d="m249.68 168h33.519q13.597 0 20.87 2.1344 7.3519 2.1344 10.988 6.1657 3.7156 4.0318 4.9801 9.802 1.3439 5.6916 1.3439 17.708v11.146q0 12.253-2.5296 17.865-2.5296 5.6128-9.3281 8.6164-6.7193 3.0039-17.628 3.0039h-8.9324v51.542h-33.28zm33.28 21.897v32.568q1.4229 0.0792 2.4505 0.0792 4.5852 0 6.3243-2.2134 1.818-2.2925 1.818-9.4073v-10.514q0-6.5611-2.0553-8.5375-2.0553-1.9765-8.5375-1.9762z"/>
		<path d="m366.23 260.64q0 0.39526-0.23721 0.90906-1.4625 2.8854-3.3992 5.9682-1.9368 3.083-4.1898 6.0475t-4.7432 5.6128q-2.4505 2.6085-4.9407 4.6245-2.4505 1.9762-4.8618 3.1622-2.3716 1.1462-4.4665 1.1462-4.5852 0-7.1937-3.4781-2.5692-3.4781-2.7274-10.277l-0.51382-0.19749q-0.39524 0.39528-1.3044 1.6206-0.86956 1.2253-2.1344 2.8458-1.2253 1.581-2.7667 3.3201-1.502 1.7391-3.1226 3.1622-0.98812 0.83003-2.4109 2.0158-1.3833 1.1462-3.1622 2.2531-1.7391 1.0672-3.8337 1.8971-2.0948 0.79048-4.4268 0.90905-2.8063 0-4.4267-1.0672-1.6206-1.0672-2.4505-2.7271-0.83002-1.66-1.0672-3.6757-0.19764-2.0158-0.19764-3.913 0-0.23728 0.0791-1.1857 0.0791-0.94862 0.23713-2.3714 0.1581-1.4625 0.39523-3.2412 0.27667-1.7787 0.63243-3.5969 0.39523-1.8577 0.86958-3.6364 0.5138-1.8181 1.1857-3.3201 0.35572-0.83004 0.63245-1.5415 0.31619-0.71146 0.6324-1.1858 0.35572-0.51384 0.79048-0.79053 0.43479-0.31615 1.0672-0.3557 0.79048 0 1.3044 0.31613 0.55334 0.31615 0.86957 0.83004 0.31622 0.47426 0.43476 1.0672 0.1581 0.59289 0.1581 1.1858 0 0.59285-0.55334 2.332-0.51381 1.7391-1.1462 4.2291-0.63243 2.4902-1.1858 5.5729-0.51381 3.0434-0.51381 6.3243 0 0.63238 0.11854 1.502 0.11854 0.83004 0.47432 1.6206 0.35572 0.75095 0.94855 1.3043 0.63245 0.51386 1.6206 0.51386 1.3439-0.0792 2.7667-0.55335 1.4229-0.51386 2.8063-1.2648 1.4229-0.79055 2.7274-1.7391 1.3044-0.98812 2.3715-2.0158 1.1462-1.0672 2.4109-2.4505 1.3044-1.4229 2.5296-2.925 1.2253-1.5415 2.2925-3.0434 1.0672-1.5019 1.7787-2.7667 0.35571-0.67195 0.98812-1.9762 0.67193-1.3044 1.3044-2.7667 0.67195-1.4624 1.1858-2.7667 0.55335-1.3044 0.71148-1.9762 0.15821-0.59289 0.2372-1.1067 0.11854-0.51386 0.23721-0.98813 0.11854-0.51385 0.27667-1.0672 0.15821-0.55332 0.39525-1.2648 0.11855-0.27673 0.43477-0.59289 0.35572-0.35572 0.83002-0.63239 0.47433-0.27673 0.98814-0.43478 0.51383-0.19752 0.98814-0.19752 1.1067 0 1.66 0.67196 0.59287 0.67193 0.6719 1.66 0 0.0395-0.19759 0.90907-0.15822 0.86956-0.43477 2.2925-0.27668 1.4229-0.59289 3.2409-0.27668 1.8181-0.55335 3.755-0.27667 1.8971-0.47432 3.755-0.15798 1.818-0.15798 3.2805 0 4.1898 1.3833 6.4823 1.4229 2.2529 3.7156 2.2529 1.9762 0 4.1106-1.1462 2.1738-1.1858 4.3477-3.083 2.2134-1.8971 4.3084-4.2291 2.1344-2.3714 4.0711-4.7033 1.9368-2.3715 3.597-4.506 1.6602-2.1344 2.8854-3.597 1.2253-1.3044 1.9368-1.3044 0.43478 0 0.71145 0.31615 0.2767 0.31613 0.2767 0.75093z"/>
		<path d="m399.24 262.75q0 4.2684-0.98813 7.9448-0.98812 3.6763-2.8458 6.9565-1.8577 3.2409-4.5852 6.2055-2.7274 2.925-6.1657 5.8101-1.3044 1.0672-2.9643 2.0948-1.6206 1.0276-3.3992 1.818-1.7787 0.79049-3.597 1.3044-1.7787 0.47429-3.3597 0.47429-1.1462 0-1.8577-0.23726-0.71146-0.2767-1.2648-0.75099-0.51381-0.47428-0.98813-1.1067-0.4743-0.67191-1.1067-1.4625-0.90906 2.6878-1.4625 4.506-0.55334 1.8182-0.90906 3.2412-0.35576 1.4229-0.55335 2.6878-0.19759 1.3044-0.39526 2.925-0.19759 1.6206-0.51384 3.8337-0.2767 2.2529-0.79049 5.5335-0.0792 0.6324-0.43478 1.4625-0.35576 0.83002-0.86956 1.581-0.47432 0.75098-1.0672 1.2648-0.55335 0.51381-1.0672 0.51381-0.55336 0-1.3439-0.35571-0.79053-0.31615-1.502-0.83003-0.71144-0.47432-1.2252-0.98812-0.51383-0.51386-0.51383-0.86958 0-1.3833 0.31615-2.7667 0.35576-1.3834 0.59289-2.6482 1.2253-6.245 2.5296-11.699 1.3439-5.4548 2.4109-10.83 1.0672-5.3755 1.7391-11.067 0.71148-5.7312 0.71148-12.49 0-0.15807-0.0393-0.71145 0-0.5929 0-1.2253 0-0.67196-0.0393-1.2253 0-0.55336 0-0.75095 0-1.3044 0.31612-2.5692 0.35576-1.2648 0.98815-2.2529 0.6324-1.0277 1.4625-1.66 0.86953-0.63239 1.8971-0.63239 0.43478 0 0.86958 0.47432 0.43477 0.43477 0.7905 1.2253 0.35572 0.75099 0.55335 1.818 0.23721 1.0672 0.23721 2.2925 0 2.0553-0.23721 4.7033-0.2372 2.6482-0.59289 5.3755-0.31612 2.6878-0.67191 5.1382-0.35575 2.4505-0.55334 4.1106 1.5415-3.4781 3.5572-6.6403 2.0553-3.1622 4.2684-5.8497 2.2133-2.6875 4.506-4.8218 2.332-2.1738 4.4665-3.7156 2.1344-1.5415 3.9922-2.332 1.8577-0.83003 3.1622-0.83003 1.7786 0 3.3201 0.71145 1.581 0.6719 2.7274 1.8181 1.1857 1.1067 1.8181 2.5692 0.67194 1.4229 0.67194 2.925zm-6.4823 3.6757q0-1.7391-0.39526-2.8063-0.39525-1.0672-0.94855-1.6206-0.55335-0.59289-1.1857-0.79053-0.59286-0.1975-0.98812-0.1975-1.581 0-3.6364 1.4229-2.0553 1.3833-4.2684 3.6757-2.2134 2.2529-4.4267 5.1382-2.2134 2.8854-4.1106 5.8101-0.47432 0.75099-1.2648 2.0158-0.75099 1.2648-1.4625 2.6482-0.71147 1.3439-1.2253 2.5692-0.51386 1.2253-0.51386 1.8577 0 0.35577 0.31615 0.90906 0.31613 0.55335 0.90906 1.1067 0.63238 0.51386 1.5415 0.90907 0.94857 0.39526 2.1738 0.39526 1.66 0 3.755-0.98814 2.0948-1.0277 4.2291-2.7274 2.1738-1.7391 4.2291-4.0318 2.0948-2.2925 3.6757-4.8218 1.6206-2.5692 2.6085-5.2567 0.98804-2.6875 0.98814-5.2174z"/>
	</g>
	<metadata>
		<rdf:RDF>
			<cc:Work rdf:about="">
				<cc:license rdf:resource="http://creativecommons.org/licenses/by/4.0/"/>
			</cc:Work>
			<cc:License rdf:about="http://creativecommons.org/licenses/by/4.0/">
				<cc:permits rdf:resource="http://creativecommons.org/ns#Reproduction"/>
				<cc:permits rdf:resource="http://creativecommons.org/ns#Distribution"/>
				<cc:requires rdf:resource="http://creativecommons.org/ns#Notice"/>
				<cc:requires rdf:resource="http://creativecommons.org/ns#Attribution"/>
				<cc:permits rdf:resource="http://creativecommons.org/ns#DerivativeWorks"/>
			</cc:License>
		</rdf:RDF>
	</metadata>
</svg>
