<?xml version="1.0" encoding="UTF-8"?>
<svg version="1.1" viewBox="0 0 512 512" xmlns="http://www.w3.org/2000/svg" xmlns:cc="http://creativecommons.org/ns#" xmlns:rdf="http://www.w3.org/1999/02/22-rdf-syntax-ns#">
	<g fill="#fff">
		<path d="m109.07 175.86h37.265q15.117 0 23.203 2.373 8.1738 2.373 12.217 6.8551 4.1309 4.4824 5.5369 10.898 1.4941 6.3279 1.4941 19.687v12.392q0 13.623-2.8124 19.863-2.8124 6.2402-10.371 9.5797-7.4704 3.3398-19.599 3.3398h-9.9312v57.304h-37.001zm37.001 24.345v36.21q1.582 0.0881 2.7246 0.0881 5.0977 0 7.0313-2.4609 2.0214-2.5488 2.0214-10.459v-11.689q0-7.2947-2.2851-9.492-2.2851-2.1972-9.492-2.1972z"/>
		<path d="m234.93 175.86v18.545h-36.561v-18.545zm0 25.663v116.63h-36.561v-116.63z"/>
		<path d="m248.63 175.86h37.265q15.117 0 23.203 2.373 8.1738 2.373 12.217 6.8551 4.1309 4.4824 5.5369 10.898 1.4941 6.3279 1.4941 19.687v12.392q0 13.623-2.8124 19.863-2.8124 6.2402-10.371 9.5797-7.4704 3.3398-19.599 3.3398h-9.9312v57.304h-37.001zm37.001 24.345v36.21q1.582 0.0881 2.7246 0.0881 5.0977 0 7.0313-2.4609 2.0214-2.5488 2.0214-10.459v-11.689q0-7.2947-2.2851-9.492-2.2851-2.1974-9.492-2.1972z"/>
		<path d="m378.21 278.87q0 0.43944-0.2638 1.0107-1.626 3.2079-3.7792 6.6356-2.1533 3.4277-4.6582 6.7236-2.5049 3.2959-5.2734 6.2402-2.7246 2.9003-5.493 5.1415-2.7246 2.1972-5.4054 3.5156-2.6367 1.2744-4.9658 1.2744-5.0977 0-7.998-3.8671-2.8564-3.8671-3.0322-11.426l-0.57126-0.21958q-0.43944 0.43947-1.4502 1.8017-0.96678 1.3623-2.373 3.164-1.3623 1.7578-3.0761 3.6913-1.6699 1.9336-3.4716 3.5156-1.0986 0.92283-2.6806 2.2411-1.538 1.2744-3.5156 2.5049-1.9336 1.1865-4.2624 2.1093-2.329 0.87887-4.9216 1.0107-3.12 0-4.9216-1.1865-1.8017-1.1865-2.7246-3.0321-0.92283-1.8457-1.1865-4.0867-0.21974-2.2412-0.21974-4.3505 0-0.2638 0.0879-1.3183 0.0879-1.0547 0.26366-2.6366 0.17578-1.626 0.43943-3.6034 0.30761-1.9775 0.70313-3.999 0.43943-2.0654 0.96678-4.0429 0.57126-2.0214 1.3183-3.6913 0.39548-0.92283 0.70313-1.7138 0.35156-0.791 0.70312-1.3183 0.39548-0.5713 0.87887-0.87891 0.48339-0.35148 1.1865-0.39548 0.87887 0 1.4502 0.35149 0.61521 0.35149 0.96678 0.92283 0.35156 0.5273 0.48339 1.1865 0.17578 0.65918 0.17578 1.3184 0 0.65913-0.61522 2.5927-0.57126 1.9336-1.2744 4.702-0.70313 2.7685-1.3184 6.196-0.57126 3.3837-0.57126 7.0313 0 0.70309 0.13183 1.6699 0.13182 0.92282 0.52734 1.8017 0.39548 0.83491 1.0546 1.4501 0.70313 0.5713 1.8017 0.5713 1.4941-0.0881 3.0761-0.61522 1.582-0.5713 3.12-1.4062 1.582-0.87891 3.0322-1.9336 1.4502-1.0986 2.6366-2.2412 1.2744-1.1865 2.6806-2.7245 1.4502-1.582 2.8124-3.2519 1.3623-1.7138 2.5488-3.3837 1.1865-1.6699 1.9775-3.0761 0.39548-0.74708 1.0986-2.1972 0.74705-1.4502 1.4502-3.0761 0.74704-1.6259 1.3183-3.0761 0.61522-1.4502 0.791-2.1972 0.17578-0.65917 0.26366-1.2304 0.13182-0.5713 0.26365-1.0986 0.13183-0.5713 0.30761-1.1865t0.43943-1.4062q0.13183-0.30765 0.48339-0.65917 0.39548-0.39548 0.92283-0.70309 0.52734-0.30765 1.0986-0.48339 0.57126-0.21959 1.0986-0.21959 1.2304 0 1.8456 0.74708 0.65917 0.74705 0.74704 1.8456 0 0.0438-0.21974 1.0107-0.17578 0.96678-0.48339 2.5488-0.3076 1.582-0.65917 3.6034-0.30761 2.0214-0.61521 4.1748-0.30761 2.1093-0.52735 4.1748-0.17578 2.0214-0.17578 3.6474 0 4.6582 1.538 7.207 1.582 2.5048 4.1309 2.5048 2.1972 0 4.5701-1.2744 2.4169-1.3183 4.8339-3.4276 2.4609-2.1093 4.7901-4.702 2.373-2.6366 4.5262-5.2292 2.1533-2.6366 3.999-5.0096 1.8458-2.373 3.2079-3.999 1.3623-1.4502 2.1533-1.4502 0.48339 0 0.791 0.35149 0.30764 0.35148 0.30764 0.83491z"/>
		<path d="m414.91 281.2q0 4.7458-1.0986 8.8329-1.0986 4.0871-3.164 7.7342-2.0654 3.6034-5.0977 6.8994-3.0322 3.2519-6.8551 6.4598-1.4502 1.1865-3.2958 2.329-1.8017 1.1425-3.7792 2.0214-1.9775 0.87887-3.999 1.4502-1.9775 0.52731-3.7353 0.52731-1.2744 0-2.0654-0.26381-0.791-0.30764-1.4062-0.83495-0.57126-0.5273-1.0986-1.2304-0.52731-0.74704-1.2304-1.626-1.0107 2.9882-1.626 5.0096-0.61522 2.0215-1.0107 3.6035-0.39552 1.582-0.61522 2.9882-0.21958 1.4502-0.43943 3.2519-0.21959 1.8017-0.5713 4.2624-0.30765 2.5048-0.87887 6.1522-0.0881 0.70312-0.48339 1.626-0.39552 0.92282-0.96678 1.7578-0.52734 0.83492-1.1865 1.4062-0.61521 0.57126-1.1865 0.57126-0.61522 0-1.4941-0.39548-0.87891-0.35149-1.6699-0.92283-0.79099-0.52734-1.3622-1.0986-0.57127-0.5713-0.57127-0.96678 0-1.538 0.35149-3.0761 0.39552-1.538 0.65917-2.9443 1.3623-6.9432 2.8124-13.007 1.4941-6.0645 2.6806-12.041 1.1865-5.9764 1.9336-12.304 0.791-6.3718 0.791-13.886 0-0.17575-0.0438-0.791 0-0.65917 0-1.3623 0-0.74708-0.0438-1.3623 0-0.61522 0-0.83491 0-1.4502 0.35148-2.8564 0.39552-1.4062 1.0986-2.5048 0.70313-1.1426 1.626-1.8457 0.96678-0.70309 2.1093-0.70309 0.48339 0 0.96678 0.52734 0.48339 0.48339 0.87891 1.3623 0.39548 0.83495 0.61522 2.0214 0.2638 1.1865 0.2638 2.5488 0 2.2851-0.2638 5.2292-0.26381 2.9443-0.65918 5.9764-0.35148 2.9882-0.74704 5.7126-0.39552 2.7246-0.61521 4.5701 1.7138-3.8671 3.9548-7.3828 2.2851-3.5156 4.7458-6.5036 2.4607-2.9881 5.0096-5.3611 2.5927-2.4169 4.9658-4.1309 2.373-1.7138 4.4386-2.5927 2.0654-0.92282 3.5156-0.92282 1.9775 0 3.6913 0.791 1.7578 0.74704 3.0322 2.0214 1.3183 1.2304 2.0214 2.8564 0.74704 1.582 0.74704 3.2519zm-7.207 4.0867q0-1.9335-0.43944-3.12-0.43943-1.1865-1.0546-1.8017-0.61522-0.65917-1.3183-0.87891-0.65917-0.21959-1.0986-0.21959-1.7578 0-4.0429 1.582-2.2851 1.538-4.7458 4.0867-2.4609 2.5048-4.9216 5.7126-2.4609 3.2079-4.5701 6.4598-0.52734 0.83495-1.4062 2.2412-0.83495 1.4062-1.626 2.9443-0.791 1.4941-1.3623 2.8564-0.5713 1.3623-0.5713 2.0654 0 0.39552 0.35149 1.0107 0.35148 0.61522 1.0107 1.2304 0.70309 0.5713 1.7138 1.0107 1.0546 0.43944 2.4169 0.43944 1.8457 0 4.1748-1.0986 2.329-1.1426 4.702-3.0322 2.4169-1.9335 4.702-4.4824 2.329-2.5488 4.0867-5.3611 1.8017-2.8564 2.9003-5.8445 1.0986-2.9881 1.0986-5.8007z"/>
	</g>
	<metadata>
		<rdf:RDF>
			<cc:License rdf:about="http://creativecommons.org/licenses/by/4.0/">
				<cc:permits rdf:resource="http://creativecommons.org/ns#Reproduction"/>
				<cc:permits rdf:resource="http://creativecommons.org/ns#Distribution"/>
				<cc:requires rdf:resource="http://creativecommons.org/ns#Notice"/>
				<cc:requires rdf:resource="http://creativecommons.org/ns#Attribution"/>
				<cc:permits rdf:resource="http://creativecommons.org/ns#DerivativeWorks"/>
			</cc:License>
			<cc:Work rdf:about="">
				<cc:license rdf:resource="http://creativecommons.org/licenses/by/4.0/"/>
			</cc:Work>
		</rdf:RDF>
	</metadata>
</svg>
